<svg xmlns="http://www.w3.org/2000/svg" viewBox="0 0 16 16" width="256" height="256" shape-rendering="crispEdges">
  <!-- Rubis pixel art rouge -->
  <!-- Rangée 1 -->
  <rect x="4" y="1" width="1" height="1" fill="#8B0000"/>
  <rect x="5" y="1" width="1" height="1" fill="#CC0000"/>
  <rect x="6" y="1" width="1" height="1" fill="#FF0000"/>
  <rect x="7" y="1" width="1" height="1" fill="#FF3333"/>
  <rect x="8" y="1" width="1" height="1" fill="#FF0000"/>
  <rect x="9" y="1" width="1" height="1" fill="#CC0000"/>
  <rect x="10" y="1" width="1" height="1" fill="#8B0000"/>
  <!-- Rangée 2 -->
  <rect x="3" y="2" width="1" height="1" fill="#8B0000"/>
  <rect x="4" y="2" width="1" height="1" fill="#FF0000"/>
  <rect x="5" y="2" width="1" height="1" fill="#FF4444"/>
  <rect x="6" y="2" width="1" height="1" fill="#FF6666"/>
  <rect x="7" y="2" width="1" height="1" fill="#FF8888"/>
  <rect x="8" y="2" width="1" height="1" fill="#FF6666"/>
  <rect x="9" y="2" width="1" height="1" fill="#FF4444"/>
  <rect x="10" y="2" width="1" height="1" fill="#FF0000"/>
  <rect x="11" y="2" width="1" height="1" fill="#8B0000"/>
  <!-- Rangée 3 -->
  <rect x="2" y="3" width="1" height="1" fill="#8B0000"/>
  <rect x="3" y="3" width="1" height="1" fill="#CC0000"/>
  <rect x="4" y="3" width="1" height="1" fill="#FF0000"/>
  <rect x="5" y="3" width="1" height="1" fill="#FF4444"/>
  <rect x="6" y="3" width="1" height="1" fill="#FFAAAA"/>
  <rect x="7" y="3" width="1" height="1" fill="#FFFFFF"/>
  <rect x="8" y="3" width="1" height="1" fill="#FFAAAA"/>
  <rect x="9" y="3" width="1" height="1" fill="#FF4444"/>
  <rect x="10" y="3" width="1" height="1" fill="#FF0000"/>
  <rect x="11" y="3" width="1" height="1" fill="#CC0000"/>
  <rect x="12" y="3" width="1" height="1" fill="#8B0000"/>
  <!-- Rangée 4 -->
  <rect x="1" y="4" width="1" height="1" fill="#8B0000"/>
  <rect x="2" y="4" width="1" height="1" fill="#CC0000"/>
  <rect x="3" y="4" width="1" height="1" fill="#FF0000"/>
  <rect x="4" y="4" width="1" height="1" fill="#FF3333"/>
  <rect x="5" y="4" width="1" height="1" fill="#FF6666"/>
  <rect x="6" y="4" width="1" height="1" fill="#FF9999"/>
  <rect x="7" y="4" width="1" height="1" fill="#FFCCCC"/>
  <rect x="8" y="4" width="1" height="1" fill="#FF9999"/>
  <rect x="9" y="4" width="1" height="1" fill="#FF6666"/>
  <rect x="10" y="4" width="1" height="1" fill="#FF3333"/>
  <rect x="11" y="4" width="1" height="1" fill="#FF0000"/>
  <rect x="12" y="4" width="1" height="1" fill="#CC0000"/>
  <rect x="13" y="4" width="1" height="1" fill="#8B0000"/>
  <!-- Ligne horizontale séparatrice -->
  <rect x="1" y="5" width="13" height="1" fill="#660000"/>
  <!-- Rangée 6 -->
  <rect x="1" y="6" width="1" height="1" fill="#8B0000"/>
  <rect x="2" y="6" width="1" height="1" fill="#CC0000"/>
  <rect x="3" y="6" width="2" height="1" fill="#AA0000"/>
  <rect x="5" y="6" width="3" height="1" fill="#880000"/>
  <rect x="8" y="6" width="3" height="1" fill="#AA0000"/>
  <rect x="11" y="6" width="1" height="1" fill="#CC0000"/>
  <rect x="12" y="6" width="1" height="1" fill="#8B0000"/>
  <rect x="13" y="6" width="1" height="1" fill="#660000"/>
  <!-- Rangée 7 -->
  <rect x="2" y="7" width="1" height="1" fill="#8B0000"/>
  <rect x="3" y="7" width="2" height="1" fill="#AA0000"/>
  <rect x="5" y="7" width="1" height="1" fill="#880000"/>
  <rect x="6" y="7" width="2" height="1" fill="#660000"/>
  <rect x="8" y="7" width="1" height="1" fill="#880000"/>
  <rect x="9" y="7" width="2" height="1" fill="#AA0000"/>
  <rect x="11" y="7" width="1" height="1" fill="#8B0000"/>
  <rect x="12" y="7" width="1" height="1" fill="#660000"/>
  <!-- Rangée 8 -->
  <rect x="3" y="8" width="1" height="1" fill="#8B0000"/>
  <rect x="4" y="8" width="2" height="1" fill="#AA0000"/>
  <rect x="6" y="8" width="1" height="1" fill="#880000"/>
  <rect x="7" y="8" width="2" height="1" fill="#550000"/>
  <rect x="9" y="8" width="1" height="1" fill="#880000"/>
  <rect x="10" y="8" width="2" height="1" fill="#AA0000"/>
  <rect x="12" y="8" width="1" height="1" fill="#660000"/>
  <!-- Rangée 9 -->
  <rect x="4" y="9" width="1" height="1" fill="#8B0000"/>
  <rect x="5" y="9" width="2" height="1" fill="#AA0000"/>
  <rect x="7" y="9" width="2" height="1" fill="#660000"/>
  <rect x="9" y="9" width="2" height="1" fill="#AA0000"/>
  <rect x="11" y="9" width="1" height="1" fill="#770000"/>
  <!-- Rangée 10 -->
  <rect x="5" y="10" width="1" height="1" fill="#8B0000"/>
  <rect x="6" y="10" width="2" height="1" fill="#AA0000"/>
  <rect x="8" y="10" width="2" height="1" fill="#880000"/>
  <rect x="10" y="10" width="1" height="1" fill="#660000"/>
  <!-- Rangée 11 -->
  <rect x="6" y="11" width="1" height="1" fill="#8B0000"/>
  <rect x="7" y="11" width="2" height="1" fill="#AA0000"/>
  <rect x="9" y="11" width="1" height="1" fill="#770000"/>
  <!-- Rangée 12 -->
  <rect x="7" y="12" width="1" height="1" fill="#8B0000"/>
  <rect x="8" y="12" width="1" height="1" fill="#880000"/>
  <!-- Pointe -->
  <rect x="7" y="13" width="2" height="1" fill="#660000"/>
  <rect x="8" y="14" width="1" height="1" fill="#440000"/>
</svg>
